<?xml version="1.0" encoding="UTF-8"?>
<svg xmlns="http://www.w3.org/2000/svg" viewBox="0 0 1200 630" width="1200" height="630">
  <defs>
    <linearGradient id="g43889" x1="84.73291852294986%" y1="14.03300998306743%" x2="15.267081477050148%" y2="85.96699001693257%">
      <stop offset="0%" stop-color="#D97706"/>
      <stop offset="100%" stop-color="#B45309"/>
    </linearGradient>
  </defs>
  <rect width="1200" height="630" fill="url(#g43889)"/>
  <circle cx="416.9817276299" cy="326.818331964314" r="79.677662064787" fill="none" stroke="rgba(255,255,255,0.12)" stroke-width="2"/><line x1="416.9817276299" y1="326.818331964314" x2="496.659389694687" y2="326.818331964314" stroke="rgba(255,255,255,0.15)" stroke-width="2"/><line x1="416.9817276299" y1="326.818331964314" x2="450.78609672296056" y2="360.62270105737457" stroke="rgba(255,255,255,0.15)" stroke-width="1"/><line x1="416.9817276299" y1="326.818331964314" x2="416.9817276299" y2="406.495994029101" stroke="rgba(255,255,255,0.15)" stroke-width="2"/><line x1="416.9817276299" y1="326.818331964314" x2="383.1773585368394" y2="360.62270105737457" stroke="rgba(255,255,255,0.15)" stroke-width="1"/><line x1="416.9817276299" y1="326.818331964314" x2="337.304065565113" y2="326.818331964314" stroke="rgba(255,255,255,0.15)" stroke-width="2"/><line x1="416.9817276299" y1="326.818331964314" x2="383.17735853683934" y2="293.0139628712534" stroke="rgba(255,255,255,0.15)" stroke-width="1"/><line x1="416.9817276299" y1="326.818331964314" x2="416.9817276299" y2="247.14066989952698" stroke="rgba(255,255,255,0.15)" stroke-width="2"/><line x1="416.9817276299" y1="326.818331964314" x2="450.78609672296056" y2="293.01396287125334" stroke="rgba(255,255,255,0.15)" stroke-width="1"/><path d="M 600 189.48379788547754 L 600 170.00078462295608 L 620 175.92230538860287 L 640 176.28503660410408 L 660 216.18194085353554 L 680 208.78959427509298 L 700 221.59661272481006 L 720 196.12257805007403 L 740 187.78779837652502 L 760 202.364046402317 L 780 203.96079143882952 L 800 173.71922105712292 L 820 204.2454725661777 L 840 203.44024290991325 L 860 157.2957716423915 L 880 160.81635219811432 L 900 168.99800193171635 L 920 172.73331950848214 L 940 203.7775379565273 L 960 158.25022985977364 L 980 204.65149030716674 L 1000 165.8143899380354 L 1020 209.2615782563288 L 1040 196.60029413777892 L 1060 218.67038326803586 L 1080 192.84635364511493 L 1100 193.53231182832695" fill="none" stroke="rgba(255,255,255,0.11578325838781893)" stroke-width="1.5"/><path d="M 600 234.7568369936198 L 600 256.16058749615866 L 620 229.40182529277442 L 640 253.28641095679862 L 660 253.71596054515044 L 680 251.73297161080654 L 700 217.86445063202228 L 720 239.0715644646855 L 740 250.19295060069788 L 760 215.9592938576131 L 780 235.40138925107195 L 800 243.47832893606017 L 820 253.4160134673071 L 840 222.1403012791658 L 860 216.53245401786972 L 880 205.8733841631713 L 900 263.8780428403899 L 920 221.71467878590647 L 940 239.15607265286823 L 960 251.55731947633095 L 980 253.01929956653902 L 1000 244.40407899959797 L 1020 248.95101903480878 L 1040 254.65814276877973 L 1060 207.84164552042165 L 1080 225.36532175860893 L 1100 255.44230501547054" fill="none" stroke="rgba(255,255,255,0.07797750294674188)" stroke-width="1.5"/><path d="M 600 327.35032485798 L 600 302.48847355311426 L 620 309.9961851699105 L 640 341.18445273058825 L 660 317.0056732249986 L 680 320.5702860588942 L 700 313.6560934991468 L 720 332.9826596466731 L 740 308.5572514963301 L 760 298.22418761433005 L 780 337.41309325904615 L 800 341.66124839701484 L 820 334.7293868210364 L 840 357.6202127812416 L 860 327.4702445678184 L 880 348.9446909341586 L 900 345.1833859088207 L 920 301.8460240768391 L 940 313.9275656359877 L 960 308.47970108983685 L 980 332.85617649906067 L 1000 355.6356523110245 L 1020 318.2727805649616 L 1040 317.9799522888074 L 1060 311.6198856728175 L 1080 301.49952494704826 L 1100 305.3495624581509" fill="none" stroke="rgba(255,255,255,0.11694322630763054)" stroke-width="1.5"/><path d="M 600 428.6437264829874 L 600 412.55807309971044 L 620 419.6363254114733 L 640 424.1695028564378 L 660 402.9214850280766 L 680 442.0719634982186 L 700 450.3607113120517 L 720 444.4606323779357 L 740 422.94814669385835 L 760 421.72924583562263 L 780 441.20827671358086 L 800 442.1446284883126 L 820 419.9768140097495 L 840 410.6672778090281 L 860 400.037415835957 L 880 426.87590667254796 L 900 412.32409187641883 L 920 407.23421073913795 L 940 409.7770078080201 L 960 411.36446607918236 L 980 407.849076941141 L 1000 437.735076273867 L 1020 395.4291833926774 L 1040 448.2489148970897 L 1060 448.33223721859355 L 1080 407.4083982399299 L 1100 452.2368788771591" fill="none" stroke="rgba(255,255,255,0.0740258892159909)" stroke-width="1.5"/><line x1="150" y1="487.62461073696613" x2="1050" y2="487.62461073696613" stroke="rgba(255,255,255,0.12)" stroke-width="2"/><circle cx="221.45227517932653" cy="487.62461073696613" r="5" fill="rgba(255,255,255,0.2)"/><line x1="221.45227517932653" y1="472.62461073696613" x2="221.45227517932653" y2="502.62461073696613" stroke="rgba(255,255,255,0.15)" stroke-width="2"/><circle cx="369.547424884513" cy="487.62461073696613" r="5" fill="rgba(255,255,255,0.2)"/><line x1="369.547424884513" y1="472.62461073696613" x2="369.547424884513" y2="502.62461073696613" stroke="rgba(255,255,255,0.15)" stroke-width="2"/><circle cx="505.80239156261086" cy="487.62461073696613" r="5" fill="rgba(255,255,255,0.2)"/><line x1="505.80239156261086" y1="472.62461073696613" x2="505.80239156261086" y2="502.62461073696613" stroke="rgba(255,255,255,0.15)" stroke-width="2"/><circle cx="650.4302084818482" cy="487.62461073696613" r="5" fill="rgba(255,255,255,0.2)"/><line x1="650.4302084818482" y1="472.62461073696613" x2="650.4302084818482" y2="502.62461073696613" stroke="rgba(255,255,255,0.15)" stroke-width="2"/><circle cx="834.7351012844592" cy="487.62461073696613" r="5" fill="rgba(255,255,255,0.2)"/><line x1="834.7351012844592" y1="472.62461073696613" x2="834.7351012844592" y2="502.62461073696613" stroke="rgba(255,255,255,0.15)" stroke-width="2"/><circle cx="969.8515097144991" cy="487.62461073696613" r="5" fill="rgba(255,255,255,0.2)"/><line x1="969.8515097144991" y1="472.62461073696613" x2="969.8515097144991" y2="502.62461073696613" stroke="rgba(255,255,255,0.15)" stroke-width="2"/>
  <circle cx="729.7219617292285" cy="345.92794203199446" r="2.379760936368257" fill="rgba(255,255,255,0.05090370884397999)"/><circle cx="1109.2403132468462" cy="310.64609757391736" r="2.076694077346474" fill="rgba(255,255,255,0.045957169688772406)"/><circle cx="1069.0840350463986" cy="322.42434763815254" r="2.550399317871779" fill="rgba(255,255,255,0.04873496503103525)"/><circle cx="340.13066897168756" cy="478.72450122842565" r="2.0496481307782233" fill="rgba(255,255,255,0.06001306098885834)"/><circle cx="205.57377906516194" cy="9.702143257018179" r="2.85178588796407" fill="rgba(255,255,255,0.07527883646078408)"/><circle cx="1160.1907270029187" cy="98.9733345550485" r="2.627112041693181" fill="rgba(255,255,255,0.05469815644435584)"/><circle cx="79.71312012523413" cy="455.84911989513785" r="1.2164863380603492" fill="rgba(255,255,255,0.031070974860340356)"/><circle cx="579.453306645155" cy="574.4112609350123" r="1.4364750836975873" fill="rgba(255,255,255,0.054494869844056666)"/><circle cx="572.8933313861489" cy="153.41515494743362" r="2.5239758449606597" fill="rgba(255,255,255,0.03012848713668063)"/><circle cx="755.0928918644786" cy="615.393712380901" r="1.2185331541113555" fill="rgba(255,255,255,0.06593894024379551)"/><circle cx="38.90577424317598" cy="536.1368335504085" r="1.5621691970154643" fill="rgba(255,255,255,0.06751523192040623)"/><circle cx="107.87505581974983" cy="52.08304414758459" r="1.5621398268267512" fill="rgba(255,255,255,0.06895525629632175)"/><circle cx="556.7183339037001" cy="435.0470846425742" r="1.5310160308144987" fill="rgba(255,255,255,0.0400144742638804)"/><circle cx="480.94525253400207" cy="178.5253481171094" r="1.7265558918006718" fill="rgba(255,255,255,0.07608210603473708)"/><circle cx="1171.5604771859944" cy="395.9907878609374" r="1.588138559833169" fill="rgba(255,255,255,0.06458625269122423)"/><circle cx="65.36515541374683" cy="401.7146890377626" r="1.1987899234518409" fill="rgba(255,255,255,0.04383068790892139)"/><circle cx="620.412558875978" cy="393.4698587958701" r="2.605481866747141" fill="rgba(255,255,255,0.05784030644688755)"/><circle cx="638.0596088245511" cy="211.29111432703212" r="1.3933030073530972" fill="rgba(255,255,255,0.03513766756048426)"/><circle cx="614.4820595160127" cy="104.95172965340316" r="2.115245119202882" fill="rgba(255,255,255,0.05777768849628046)"/><circle cx="640.4874446801841" cy="344.44412598386407" r="1.3644935879856348" fill="rgba(255,255,255,0.06452345066471026)"/>
  <text x="600" y="335" font-family="system-ui, -apple-system, 'Segoe UI', sans-serif" font-size="58" font-weight="700" fill="rgba(0,0,0,0.15)" text-anchor="middle" letter-spacing="1">AP World History Modern</text>
  <text x="600" y="332" font-family="system-ui, -apple-system, 'Segoe UI', sans-serif" font-size="58" font-weight="700" fill="white" text-anchor="middle" letter-spacing="1">AP World History Modern</text>
  <g transform="translate(1140, 575)">
    <rect x="0" y="0" width="40" height="40" rx="8" fill="rgba(255,255,255,0.15)"/>
    <text x="20" y="29" font-family="sans-serif" font-weight="bold" font-size="24" fill="rgba(255,255,255,0.6)" text-anchor="middle">K</text>
  </g>
</svg>